<svg aria-hidden="true" style="position: absolute; width: 0; height: 0; overflow: hidden;" version="1.1" xmlns="http://www.w3.org/2000/svg" xmlns:xlink="http://www.w3.org/1999/xlink">
<defs>
<symbol id="icon-point" viewBox="0 0 26 32">
<path fill="#0081c9" style="fill: var(--color1, #0081c9)" d="M12.952 32c0 0 12-11.372 12-20 0-3.183-1.264-6.235-3.515-8.485s-5.303-3.515-8.485-3.515-6.235 1.264-8.485 3.515c-2.25 2.25-3.515 5.303-3.515 8.485 0 8.628 12 20 12 20zM12.952 18c-1.591 0-3.117-0.632-4.243-1.757s-1.757-2.651-1.757-4.243 0.632-3.117 1.757-4.243c1.125-1.125 2.651-1.757 4.243-1.757s3.117 0.632 4.243 1.757c1.125 1.125 1.757 2.651 1.757 4.243s-0.632 3.117-1.757 4.243c-1.125 1.125-2.651 1.757-4.243 1.757z"></path>
</symbol>
<symbol id="icon-logo" viewBox="0 0 87 32">
<path d="M85.035 23.679c-0.127-0.318-0.223-0.637-0.371-0.923-0.424-0.796-1.102-1.252-2.003-1.274-2.014-0.042-4.028-0.064-6.042-0.064-5.109 0-10.208 0-15.317 0.011-4.113 0.011-8.226 0.021-12.35 0.042-0.074 0-0.159 0-0.18 0-0.064-0.382-0.117-0.732-0.18-1.083-0.138-0.679 0.318-1.486 1.049-1.741 0.403-0.138 0.837-0.18 1.261-0.287 0.965-0.234 1.94-0.467 2.894-0.743 0.615-0.18 1.155-0.509 1.516-1.083 0.562-0.902 0.477-1.794 0-2.685-0.127-0.234-0.265-0.478-0.413-0.754 0.159-0.011 0.254-0.021 0.36-0.021 4.007 0 8.014-0.011 12.031-0.011 4.95 0 9.912 0.011 14.862 0.011 0.943 0 1.887 0.053 2.788 0.403 1.017 0.393 1.738 1.061 1.95 2.186 0.117 0.648 0.043 1.284-0.138 1.91-0.551 1.985-1.113 3.959-1.664 5.933-0.011 0.064-0.032 0.106-0.053 0.17zM84.728 17.353c0.021-1.581-1.24-2.855-2.852-2.876-1.643-0.021-2.957 1.21-2.978 2.813-0.021 1.645 1.25 2.929 2.894 2.951 1.664 0 2.915-1.231 2.936-2.887z"></path>
<path d="M3.731 21.471c0.127-0.393 0.244-0.775 0.371-1.157 0.085-0.255 0.117-0.605 0.297-0.732 0.17-0.127 0.509-0.042 0.774-0.042 11.014 0 22.027-0.011 33.041-0.011 0.032 0 0.074 0 0.106 0 0-0.011 0-0.021 0-0.042-11.13-0.499-22.261-1.008-33.423-1.518 0.021-0.096 0.032-0.17 0.064-0.244 0.477-1.465 0.965-2.929 1.442-4.405 0.053-0.18 0.138-0.244 0.339-0.244 6.445 0.011 12.89 0 19.346 0.011 0.191 0 0.403 0.064 0.562 0.17 0.996 0.616 2.099 0.913 3.254 1.008 1.442 0.117 2.862 0.021 4.219-0.509 0.36-0.138 0.7-0.329 1.071-0.499 0.636 0.69 1.442 1.178 2.332 1.56-0.138 0.212-0.265 0.393-0.382 0.584-0.265 0.435-0.413 0.913-0.403 1.433 0.011 0.616 0.244 1.104 0.71 1.507 0.541 0.467 1.166 0.732 1.855 0.86 0.816 0.149 1.293 0.669 1.632 1.369 0.127 0.276 0.233 0.563 0.371 0.892-12.54 0.011-25.048 0.011-37.578 0.011z"></path>
<path d="M48.74 17.162c-0.329 0.478-0.859 0.902-1.124 1.539-0.201 0.488-0.604 0.828-0.954 1.221-0.032 0.042-0.074 0.074-0.095 0.096 0.233 0.318 0.445 0.626 0.678 0.923 0.127 0.17 0.095 0.308-0.106 0.318-0.445 0.021-0.901 0-1.346-0.032-0.053 0-0.127-0.138-0.138-0.212-0.021-0.096-0.011-0.202-0.011-0.234-0.223 0.191-0.477 0.403-0.721 0.626-0.148 0.138-0.297 0.202-0.498 0.17-0.244-0.042-0.36-0.17-0.36-0.403 0-0.17 0.032-0.329 0.053-0.52-0.074 0-0.138-0.011-0.201 0-0.435 0.106-0.816-0.053-1.198-0.212-0.064-0.021-0.106-0.127-0.127-0.202-0.064-0.297-0.117-0.605-0.18-0.934-0.286 0.074-0.392-0.117-0.562-0.297-0.392-0.393-0.816-0.785-1.367-0.976-0.541-0.191-1.092-0.35-1.632-0.541-0.286-0.106-0.625-0.202-0.615-0.594 0.011-0.202 0.064-0.467 0.191-0.594 0.594-0.573 0.816-1.327 1.092-2.059 0.021-0.064-0.021-0.191-0.074-0.233-0.148-0.096-0.307-0.159-0.466-0.244-0.625-0.297-1.283-0.552-1.876-0.902-0.784-0.456-1.23-1.157-1.198-2.101 0-0.085-0.011-0.18-0.021-0.265 0-0.021-0.011-0.032-0.042-0.096-0.509 0.541-0.848 1.221-1.399 1.688-0.021-0.011-0.042-0.021-0.064-0.032 0.032-0.138 0.053-0.276 0.095-0.467-0.774 0.828-1.632 1.337-2.83 1.327 0.276-0.287 0.488-0.52 0.71-0.754-0.021-0.021-0.032-0.042-0.053-0.064-0.922 0.637-1.94 0.838-3.064 0.754 0.064-0.191 0.106-0.34 0.159-0.488-1.049-0.276-2.078-0.563-2.862-1.443 0.286-0.053 0.509-0.085 0.742-0.127 0-0.032 0.011-0.064 0.011-0.096-0.106-0.117-0.223-0.233-0.329-0.361-0.117-0.138-0.297-0.244-0.148-0.478 0.021-0.032-0.032-0.127-0.053-0.191-0.064-0.17-0.138-0.34-0.223-0.541 1.516 0.828 3.053 0.626 4.569 0.265 0.869-0.212 1.728-0.202 2.597-0.106 0.827 0.085 1.643 0.127 2.406-0.287 0.148-0.085 0.286-0.202 0.413-0.318 0.148-0.149 0.286-0.318 0.424-0.478 1.092-1.348 2.608-1.868 4.251-2.133 0.223-0.032 0.456 0.011 0.678 0.064 1.293 0.276 2.576 0.573 3.869 0.86 0.668 0.149 1.304 0.064 1.908-0.223 0.35-0.159 0.689-0.35 1.018-0.552-0.572 0.096-1.124 0.202-1.749 0.011 0.413-0.17 0.827-0.191 1.113-0.573-0.191-0.042-0.35-0.085-0.551-0.138 0.604-0.371 1.272-0.414 1.876-0.52-0.276-0.042-0.583-0.096-0.965-0.159 0.117-0.117 0.17-0.159 0.233-0.223-0.657-0.149-0.848-0.297-0.88-0.7 0.403 0.106 0.795 0.234 1.177 0.042-0.117-0.159-0.233-0.318-0.36-0.488 0.657-0.042 1.261-0.074 1.855-0.117 0-0.021 0-0.042 0-0.053-0.233-0.096-0.477-0.18-0.7-0.287-0.233-0.117-0.435-0.265-0.509-0.573 0.117-0.011 0.212-0.011 0.297-0.021 0.466-0.042 0.933-0.074 1.389-0.127 0.095-0.011 0.233-0.117 0.265-0.212 0.021-0.074-0.074-0.191-0.127-0.287-0.021-0.032-0.064-0.053-0.138-0.117 0.127-0.074 0.223-0.149 0.329-0.191 0.53-0.159 1.071-0.308 1.59-0.467 0.138-0.042 0.254-0.138 0.392-0.212-0.011-0.032-0.021-0.053-0.032-0.085 0.138 0.011 0.276 0.021 0.435 0.032-0.011-0.096-0.011-0.159-0.021-0.276 0.318 0.021 0.636 0.042 0.965 0.064-0.021-0.106-0.032-0.191-0.064-0.34 0.223 0.053 0.435 0.106 0.668 0.159-0.074-0.106-0.138-0.191-0.201-0.276 0.011-0.021 0.021-0.042 0.042-0.074 0.329 0.18 0.657 0.361 0.996 0.541 0.011-0.021 0.032-0.042 0.042-0.064-0.032-0.159-0.074-0.318-0.117-0.52 0.18 0.064 0.318 0.106 0.392 0.127 0.095-0.053 0.18-0.117 0.201-0.106 0.18 0.138 0.36 0.096 0.551 0.064 0.435-0.064 0.636 0.127 0.657 0.563 0 0.096 0.074 0.212 0.148 0.265 0.212 0.149 0.456 0.244 0.657 0.403 0.191 0.159 0.35 0.361 0.519 0.541 0.085 0.096 0.148 0.202 0.233 0.276 0.488 0.435 0.975 0.87 1.463 1.305 0.085 0.074 0.17 0.159 0.244 0.244 0.318 0.35 0.307 0.701-0.043 1.019-0.18 0.159-0.371 0.297-0.583 0.414-0.254 0.159-0.488 0.106-0.689-0.106-0.424-0.467-0.975-0.52-1.548-0.467-0.223 0.021-0.435 0.106-0.647 0.127-0.36 0.032-0.668-0.117-0.943-0.34-0.212-0.17-0.392-0.127-0.541 0.064-0.106 0.127-0.212 0.265-0.286 0.414-0.689 1.454-1.378 2.919-2.067 4.383-0.148 0.318-0.191 0.616-0.074 0.966 0.159 0.52-0.074 1.008-0.36 1.401-0.233 0.318-0.307 0.541-0.127 0.902 0.276 0.573 0.466 1.178 0.721 1.762 0.074 0.17 0.223 0.308 0.36 0.435 0.191 0.18 0.339 0.361 0.223 0.647-0.042 0.096-0.053 0.202-0.085 0.308-0.106 0.34-0.286 0.563-0.668 0.669-0.721 0.202-1.41 0.509-2.141 0.679-0.424 0.106-0.88 0.032-1.325 0.043-0.095 0-0.191-0.021-0.276 0-0.233 0.053-0.456 0.138-0.689 0.18-0.138 0.042-0.265 0.021-0.456 0.011zM42.857 11.802c-0.032 0.297-0.074 0.541-0.095 0.785-0.053 0.573-0.106 1.136-0.159 1.709-0.032 0.382-0.17 0.785-0.095 1.146 0.254 1.337 0.89 2.42 2.215 2.972 0.085 0.032 0.159 0.074 0.233 0.117 0.201 0.138 0.413 0.265 0.604 0.425 0.223 0.18 0.562 0.233 0.71 0.042 0.233-0.308 0.456-0.626 0.636-0.966 0.159-0.297 0.244-0.637 0.382-0.955 0.159-0.382 0.286-0.785 0.519-1.125 0.435-0.658 0.678-1.369 0.816-2.123 0.064-0.361-0.064-0.499-0.435-0.541-0.583-0.074-1.177-0.117-1.76-0.223-1.219-0.223-2.406-0.594-3.572-1.263zM49.609 15.952c0.148 0.011 0.297 0.074 0.403 0.032 0.477-0.17 0.933 0.053 1.399 0.011 0.095-0.011 0.191 0 0.286 0 0.424-0.021 0.816-0.149 1.145-0.425 0.159-0.127 0.201-0.255 0.021-0.414-0.191-0.17-0.371-0.35-0.551-0.531-0.318-0.329-0.636-0.658-0.965-0.998-0.159 0.605-0.572 0.987-1.039 1.337-0.318 0.244-0.594 0.552-0.7 0.987zM43.938 6.973c2.279 1.242 4.42 0.976 5.661-0.69-1.77 1.231-3.657 1.475-5.661 0.69zM55.418 2.335c-0.148 0.478-0.276 1.030-0.488 1.55-0.339 0.86-0.721 1.698-1.092 2.547-0.021 0.053-0.032 0.117-0.053 0.17 0.032 0.011 0.064 0.021 0.085 0.042 0.329-0.594 0.647-1.189 0.975-1.783 0.148-0.276 0.297-0.563 0.466-0.828 0.106-0.18 0.254-0.255 0.466-0.149 0.095 0.042 0.201 0.042 0.307 0.064 0.011-0.021 0.032-0.042 0.042-0.064-0.678-0.361-0.678-1.008-0.71-1.55zM41.712 17.746c-0.011 0.021-0.032 0.053-0.042 0.074 0.117 0.085 0.233 0.18 0.36 0.244 0.371 0.202 0.753 0.393 1.113 0.616 0.085 0.053 0.17 0.159 0.191 0.255 0.138 0.563 0.594 0.913 0.901 1.454 0.127-0.382 0.371-0.478 0.7-0.446-0.127-0.382-0.604-0.424-0.636-0.807-0.827-0.509-1.632-1.083-2.586-1.39zM41.065 15.538c-0.042 0-0.074-0.011-0.117-0.011-0.201 0.297-0.424 0.584-0.604 0.881-0.191 0.318-0.18 0.34 0.106 0.584 0.138 0.117 0.254 0.244 0.403 0.34 0.127 0.085 0.276 0.149 0.477 0.244-0.085-0.732-0.17-1.39-0.265-2.038zM51.231 4.691c0.986-1.189 2.088-2.271 3.307-3.216-1.675 0.499-2.47 1.879-3.307 3.216zM51.57 11.516c0.456-0.053 0.784-0.308 0.922-0.711 0.233-0.732 0.053-1.433-0.159-2.218-0.148 1.051-0.064 2.080-0.763 2.929zM40.355 9.807c1.187 0.764 1.707 1.879 1.707 3.258 0.297-1.889-0.244-2.919-1.707-3.258zM50.192 14.19c0.011 0.011 0.021 0.021 0.032 0.032 0.18-0.202 0.35-0.425 0.541-0.605 0.498-0.478 0.541-1.051 0.36-1.751-0.117 0.096-0.244 0.159-0.286 0.255-0.074 0.18-0.085 0.371-0.127 0.562-0.074 0.318-0.138 0.647-0.233 0.955-0.064 0.18-0.191 0.361-0.286 0.552zM28.25 10.55c1.155 0.754 2.586 0.732 3.265-0.053-1.102 0.382-2.184 0.371-3.265 0.053zM59.722 3.099c0.011-0.011 0.021-0.011 0.021-0.021-0.329-0.255-0.647-0.509-0.986-0.754-0.106-0.074-0.254-0.138-0.382-0.149-0.17-0.021-0.318 0.032-0.297 0.18 0.583 0.255 1.113 0.499 1.643 0.743zM30.889 11.558c-0.668 0.085-1.346 0.17-1.993 0.244 0.562 0.212 1.791 0.202 1.993-0.244z"></path>
<path d="M63.813 26.938c-0.106 0.679-0.212 1.295-0.318 1.921-0.064 0.371-0.106 0.754-0.181 1.125-0.138 0.754-0.021 1.401 0.795 1.794-3.127 0-6.191 0-9.254 0 0-0.021-0.011-0.032-0.011-0.053 0.212-0.117 0.435-0.212 0.636-0.34 0.382-0.244 0.445-0.424 0.286-0.849-0.117-0.318-0.233-0.626-0.371-0.934-0.032-0.074-0.159-0.17-0.244-0.17-1.081-0.011-2.152-0.011-3.233 0.011-0.106 0-0.233 0.074-0.297 0.159-0.223 0.265-0.424 0.541-0.636 0.817-0.329 0.446-0.276 0.796 0.17 1.136 0.095 0.074 0.201 0.138 0.36 0.244-1.431 0-2.809 0-4.198 0 0.021-0.032 0.032-0.064 0.053-0.064 0.7-0.318 1.198-0.849 1.632-1.475 1.092-1.571 2.194-3.142 3.297-4.712 0.424-0.605 0.36-0.849-0.276-1.231-0.021-0.011-0.042-0.021-0.042-0.074 0.064 0 0.127-0.011 0.201-0.011 1.473 0 2.947 0 4.42-0.011 0.191 0 0.276 0.064 0.35 0.234 0.816 1.847 1.632 3.694 2.449 5.551 0.254 0.584 0.509 1.167 1.103 1.55-0.106 0.074-0.198 0.138-0.304 0.223h0.601c-0.095-0.074-0.192-0.138-0.255-0.18 0-0.021-0.011-0.042 0-0.053 0.668-0.456 0.795-1.157 0.912-1.889 0.18-1.199 0.371-2.409 0.604-3.598 0.127-0.626-0.063-1.093-0.498-1.497-0.095-0.085-0.191-0.18-0.328-0.297 0.095-0.011 0.159-0.021 0.223-0.021 1.219 0 2.438-0.011 3.657 0 0.138 0 0.307 0.074 0.413 0.17 1.453 1.358 2.884 2.738 4.336 4.097 0.032 0.032 0.063 0.053 0.138 0.106 0.074-0.393 0.138-0.753 0.191-1.114 0.095-0.584 0.17-1.168 0.297-1.751 0.138-0.616-0.042-1.072-0.572-1.401-0.032-0.021-0.053-0.042-0.085-0.064 0 0 0-0.011 0-0.042 1.251 0 2.491 0 3.753 0-0.011 0.032-0.011 0.064-0.032 0.074-0.679 0.456-0.996 1.114-1.113 1.9-0.296 1.857-0.604 3.715-0.901 5.562-0.032 0.18-0.106 0.223-0.275 0.234-0.615 0.011-1.177-0.202-1.739-0.414-1.441-0.552-2.576-1.518-3.636-2.59-0.657-0.701-1.357-1.359-2.078-2.070zM54.772 28.201c-0.307-0.754-0.604-1.486-0.912-2.25-0.445 0.764-0.88 1.486-1.325 2.25 0.774 0 1.495 0 2.237 0z"></path>
<path d="M3.816 31.767c-1.251 0-2.502 0-3.816 0 0.18-0.106 0.318-0.18 0.445-0.265 0.36-0.244 0.583-0.584 0.721-0.987 0.541-1.613 1.071-3.237 1.622-4.84 0.18-0.531 0.095-0.966-0.307-1.348-0.021-0.021-0.042-0.053-0.095-0.127 0.212 0 0.392 0 0.562 0 1.177 0 2.353 0.011 3.519 0 0.18 0 0.265 0.064 0.339 0.223 0.594 1.284 1.187 2.569 1.781 3.842 0.042 0.085 0.085 0.17 0.148 0.287 0.085-0.117 0.148-0.212 0.201-0.308 0.837-1.284 1.685-2.579 2.533-3.853 0.064-0.096 0.201-0.191 0.307-0.191 1.367-0.011 2.735 0 4.102 0 0.032 0 0.064 0.011 0.127 0.042-0.827 0.35-0.784 1.029-0.763 1.73 0.053 1.465 0.085 2.929 0.095 4.405 0 0.573 0.254 0.955 0.721 1.231 0.074 0.042 0.138 0.085 0.276 0.159-1.813 0-3.562 0-5.353 0 0.233-0.138 0.435-0.255 0.625-0.382 0.201-0.149 0.318-0.34 0.297-0.605-0.074-1.083-0.138-2.165-0.212-3.258-0.011-0.096-0.021-0.18-0.042-0.329-0.074 0.117-0.127 0.17-0.17 0.233-0.933 1.454-1.855 2.898-2.777 4.352-0.106 0.17-0.201 0.233-0.403 0.17-0.445-0.149-0.922-0.255-1.346-0.446-0.551-0.234-0.943-0.647-1.187-1.221-0.466-1.061-0.954-2.102-1.463-3.205-0.042 0.127-0.085 0.202-0.106 0.276-0.339 1.083-0.678 2.155-1.018 3.237-0.191 0.616-0.085 0.828 0.519 1.083 0.042 0.021 0.095 0.042 0.138 0.064-0.011 0-0.021 0.011-0.021 0.032z"></path>
<path d="M29.257 24.199c-0.021 0.053-0.021 0.064-0.021 0.064-0.71 0.34-0.912 0.955-1.018 1.677-0.201 1.359-0.445 2.717-0.689 4.076-0.127 0.722 0.021 1.316 0.731 1.73-1.505 0-2.968 0-4.442 0 0.042-0.276 0.074-0.541 0.117-0.86-0.138 0.085-0.233 0.149-0.329 0.202-1.59 0.934-3.254 1.104-4.972 0.393-0.297-0.117-0.562-0.34-0.795-0.563-0.329-0.318-0.435-0.722-0.36-1.189 0.223-1.327 0.445-2.664 0.657-4.001 0.117-0.732-0.021-1.061-0.572-1.497 1.654 0 3.275 0 4.94 0-0.074 0.064-0.117 0.096-0.159 0.127-0.509 0.361-0.806 0.86-0.901 1.475-0.18 1.104-0.36 2.218-0.541 3.322-0.106 0.637 0.17 1.093 0.795 1.274 1.187 0.34 2.364-0.318 2.544-1.507 0.095-0.658 0.212-1.305 0.329-1.963 0.074-0.446 0.148-0.892 0.223-1.337 0.095-0.584 0.064-1.125-0.572-1.433 1.664 0.011 3.339 0.011 5.035 0.011z"></path>
<path d="M83.467 25.653c-0.53-0.17-1.018-0.382-1.537-0.478-1.166-0.223-2.322-0.159-3.403 0.403-0.699 0.361-1.261 0.86-1.441 1.666-0.117 0.509-0.117 1.019 0.042 1.518 0.414 1.348 1.41 1.815 2.735 1.751 0.053 0 0.106-0.011 0.159-0.021 0.626-0.064 0.626-0.064 0.721-0.679 0.053-0.297 0.106-0.594 0.149-0.892 0.063-0.478 0.095-0.945-0.424-1.327 1.336 0 2.587 0 3.869 0-0.085 0.52-0.169 1.030-0.254 1.528-0.117 0.679-0.244 1.359-0.339 2.038-0.042 0.287-0.117 0.435-0.445 0.488-2.184 0.34-4.367 0.446-6.541-0.085-0.752-0.18-1.462-0.456-2.109-0.881-1.293-0.849-1.675-2.059-1.124-3.503 0.403-1.061 1.198-1.751 2.152-2.282 1.113-0.605 2.322-0.923 3.583-1.051 0.912-0.085 1.834-0.106 2.745-0.106 0.53 0 1.049 0.106 1.579 0.17 0.053 0.011 0.149 0.127 0.138 0.191-0.085 0.52-0.17 1.040-0.254 1.55z"></path>
<path d="M29.67 29.909c0.88 0.202 1.728 0.435 2.597 0.605 0.795 0.149 1.611 0.212 2.417 0.032 0.244-0.053 0.498-0.18 0.689-0.35 0.286-0.244 0.265-0.552-0.042-0.754-0.286-0.191-0.615-0.35-0.943-0.467-0.774-0.287-1.558-0.52-2.321-0.807-0.36-0.138-0.721-0.308-1.028-0.531-0.71-0.52-0.837-1.252-0.392-2.017 0.233-0.403 0.583-0.69 0.975-0.902 0.742-0.414 1.558-0.616 2.396-0.722 1.473-0.18 2.947-0.149 4.399 0.191 0.064 0.011 0.138 0.042 0.233 0.064-0.085 0.456-0.159 0.902-0.233 1.337-0.742-0.138-1.442-0.318-2.152-0.403-0.435-0.053-0.89 0.021-1.336 0.074-0.148 0.021-0.297 0.117-0.424 0.202-0.466 0.318-0.435 0.743 0.074 0.934 0.541 0.202 1.124 0.308 1.664 0.509 0.583 0.202 1.145 0.456 1.707 0.711 0.223 0.106 0.424 0.265 0.604 0.425 0.774 0.69 0.859 1.518 0.254 2.356-0.392 0.541-0.943 0.86-1.569 1.083-0.827 0.287-1.685 0.403-2.544 0.456-1.505 0.085-3 0-4.473-0.34-0.17-0.042-0.233-0.106-0.265-0.265-0.074-0.509-0.191-0.976-0.286-1.422z"></path>
<path d="M49.302 24.231c-0.276 0.637-0.53 1.231-0.795 1.857-0.689-0.701-1.548-0.478-2.385-0.52-0.106 0.626-0.223 1.242-0.329 1.857-0.138 0.796-0.233 1.603-0.403 2.399-0.148 0.732 0.032 1.348 0.562 1.857 0.021 0.021 0.042 0.053 0.064 0.085 0 0 0 0.011 0 0.053-1.749 0-3.498 0-5.279 0 0.17-0.138 0.307-0.233 0.435-0.35 0.413-0.382 0.572-0.87 0.657-1.412 0.223-1.422 0.456-2.845 0.689-4.267 0.011-0.064 0.011-0.138 0.021-0.233-1.039-0.064-2.046-0.011-3.053 0.541 0.233-0.541 0.456-0.998 0.615-1.475 0.117-0.329 0.297-0.414 0.636-0.414 2.777 0.011 5.544 0.011 8.321 0.011 0.064 0 0.127 0.011 0.244 0.011z"></path>
<path d="M81.855 15.018c1.261 0.032 2.226 1.072 2.184 2.377-0.042 1.316-1.007 2.293-2.237 2.271-1.261-0.021-2.226-1.061-2.204-2.367 0.021-1.295 1.028-2.314 2.257-2.282zM82.418 17.428c0.085-0.042 0.127-0.074 0.17-0.096 0.286-0.138 0.455-0.35 0.434-0.69s-0.233-0.637-0.572-0.722c-0.572-0.149-1.155-0.085-1.727 0.043 0 0.945 0 1.868 0 2.813 0.117 0 0.212 0 0.307 0.011 0.233 0.032 0.318-0.053 0.296-0.287-0.021-0.265 0-0.531 0-0.775 0.636-0.138 0.859 0 0.976 0.552 0.031 0.127 0.053 0.265 0.106 0.382 0.021 0.064 0.095 0.138 0.159 0.138 0.181 0.021 0.36 0.011 0.572 0.011-0.212-0.499-0.095-1.104-0.72-1.38z"></path>
<path d="M46.641 14.594c-0.392 0.87-0.795 1.73-1.187 2.59-1.124-0.372-1.95-2.112-1.473-3.195 0.445 0.117 0.89 0.255 1.346 0.361 0.435 0.085 0.89 0.159 1.314 0.244z"></path>
<path d="M81.389 17.205c0-0.287 0-0.509 0-0.722 0-0.053 0.031-0.117 0.074-0.149 0.159-0.096 0.647 0 0.773 0.127 0.202 0.202 0.127 0.552-0.159 0.637-0.202 0.074-0.424 0.074-0.689 0.106z"></path>
</symbol>
<symbol id="icon-search" viewBox="0 0 32 32">
<path d="M31.008 27.231l-7.58-6.447c-0.784-0.705-1.622-1.029-2.299-0.998 1.789-2.096 2.87-4.815 2.87-7.787 0-6.627-5.373-12-12-12s-12 5.373-12 12 5.373 12 12 12c2.972 0 5.691-1.081 7.787-2.87-0.031 0.677 0.293 1.515 0.998 2.299l6.447 7.58c1.104 1.226 2.907 1.33 4.007 0.23s0.997-2.903-0.23-4.007zM12 20c-4.418 0-8-3.582-8-8s3.582-8 8-8 8 3.582 8 8-3.582 8-8 8z"></path>
</symbol>
<symbol id="icon-burger" viewBox="0 0 57 32">
<path d="M56.889 1.778c0 0.982-0.796 1.778-1.778 1.778h-53.333c-0.982 0-1.778-0.796-1.778-1.778s0.796-1.778 1.778-1.778h53.333c0.982 0 1.778 0.796 1.778 1.778zM56.889 30.222c0 0.982-0.796 1.778-1.778 1.778h-53.333c-0.982 0-1.778-0.796-1.778-1.778s0.796-1.778 1.778-1.778h53.333c0.982 0 1.778 0.796 1.778 1.778zM56.889 15.986c0 0.974-0.789 1.764-1.764 1.764h-53.362c-0.974 0-1.764-0.79-1.764-1.764s0.79-1.764 1.764-1.764h53.362c0.974 0 1.764 0.79 1.764 1.764z"></path>
</symbol>
<symbol id="icon-close" viewBox="0 0 32 32">
<path d="M18.452 16l12.678-12.678c0.285-0.333 0.434-0.761 0.417-1.198s-0.198-0.853-0.508-1.163c-0.31-0.31-0.725-0.491-1.163-0.508s-0.866 0.132-1.198 0.417l-12.678 12.678-12.678-12.696c-0.333-0.285-0.761-0.434-1.198-0.417s-0.853 0.198-1.163 0.508c-0.31 0.31-0.491 0.725-0.508 1.163s0.132 0.866 0.417 1.198l12.678 12.696-12.696 12.678c-0.182 0.156-0.33 0.348-0.434 0.563s-0.163 0.451-0.172 0.69c-0.009 0.239 0.031 0.478 0.119 0.701s0.22 0.426 0.39 0.595c0.169 0.169 0.372 0.302 0.595 0.39s0.462 0.128 0.702 0.119c0.24-0.009 0.475-0.068 0.69-0.172s0.408-0.252 0.564-0.434l12.696-12.678 12.678 12.678c0.333 0.285 0.761 0.434 1.198 0.417s0.853-0.198 1.163-0.508c0.31-0.31 0.491-0.725 0.508-1.163s-0.132-0.866-0.417-1.198l-12.678-12.678z"></path>
</symbol>
<symbol id="icon-left" viewBox="0 0 66 32">
<path d="M66.462 13.758h-58.609l10.857-10.857-2.901-2.901-15.809 15.809 15.809 15.809 2.901-2.901-10.857-10.857h58.609v-4.103z"></path>
</symbol>
<symbol id="icon-right" viewBox="0 0 66 32">
<path d="M0 13.758h58.609l-10.857-10.857 2.901-2.901 15.809 15.809-15.809 15.809-2.901-2.901 10.857-10.857h-58.609v-4.103z"></path>
</symbol>
</defs>
</svg>
